<mxfile host="app.diagrams.net" modified="2023-08-31T07:54:37.854Z" agent="Mozilla/5.0 (Macintosh; Intel Mac OS X 10_15_7) AppleWebKit/605.1.15 (KHTML, like Gecko) Version/15.5 Safari/605.1.15" etag="yW4ByfwxJ9XzpxZfYLEB" version="21.7.1" type="github">
  <diagram name="Page-1" id="8gMFKK3R2ZeON6QerMfF">
    <mxGraphModel dx="1363" dy="889" grid="1" gridSize="10" guides="1" tooltips="1" connect="1" arrows="1" fold="1" page="1" pageScale="1" pageWidth="1169" pageHeight="827" math="0" shadow="0">
      <root>
        <mxCell id="0" />
        <mxCell id="1" parent="0" />
        <mxCell id="MKaenRL1xMwM7ThxQxj5-61" style="rounded=0;orthogonalLoop=1;jettySize=auto;html=1;exitX=1;exitY=0.5;exitDx=0;exitDy=0;entryX=0;entryY=0.5;entryDx=0;entryDy=0;" edge="1" parent="1" source="MKaenRL1xMwM7ThxQxj5-1" target="MKaenRL1xMwM7ThxQxj5-19">
          <mxGeometry relative="1" as="geometry" />
        </mxCell>
        <mxCell id="MKaenRL1xMwM7ThxQxj5-63" style="rounded=0;orthogonalLoop=1;jettySize=auto;html=1;exitX=1;exitY=0.5;exitDx=0;exitDy=0;entryX=0;entryY=0.5;entryDx=0;entryDy=0;" edge="1" parent="1" source="MKaenRL1xMwM7ThxQxj5-1" target="MKaenRL1xMwM7ThxQxj5-20">
          <mxGeometry relative="1" as="geometry" />
        </mxCell>
        <mxCell id="MKaenRL1xMwM7ThxQxj5-64" style="rounded=0;orthogonalLoop=1;jettySize=auto;html=1;exitX=1;exitY=0.5;exitDx=0;exitDy=0;entryX=0;entryY=0.5;entryDx=0;entryDy=0;" edge="1" parent="1" source="MKaenRL1xMwM7ThxQxj5-1" target="MKaenRL1xMwM7ThxQxj5-21">
          <mxGeometry relative="1" as="geometry" />
        </mxCell>
        <mxCell id="MKaenRL1xMwM7ThxQxj5-65" style="edgeStyle=none;shape=connector;rounded=0;orthogonalLoop=1;jettySize=auto;html=1;exitX=1;exitY=0.5;exitDx=0;exitDy=0;entryX=0;entryY=0.5;entryDx=0;entryDy=0;labelBackgroundColor=default;strokeColor=default;fontFamily=Helvetica;fontSize=11;fontColor=default;endArrow=classic;" edge="1" parent="1" source="MKaenRL1xMwM7ThxQxj5-1" target="MKaenRL1xMwM7ThxQxj5-22">
          <mxGeometry relative="1" as="geometry" />
        </mxCell>
        <mxCell id="MKaenRL1xMwM7ThxQxj5-66" style="edgeStyle=none;shape=connector;rounded=0;orthogonalLoop=1;jettySize=auto;html=1;exitX=1;exitY=0.5;exitDx=0;exitDy=0;entryX=0;entryY=0.5;entryDx=0;entryDy=0;labelBackgroundColor=default;strokeColor=default;fontFamily=Helvetica;fontSize=11;fontColor=default;endArrow=classic;" edge="1" parent="1" source="MKaenRL1xMwM7ThxQxj5-1" target="MKaenRL1xMwM7ThxQxj5-23">
          <mxGeometry relative="1" as="geometry" />
        </mxCell>
        <mxCell id="MKaenRL1xMwM7ThxQxj5-1" value="Input 1" style="ellipse;whiteSpace=wrap;html=1;aspect=fixed;" vertex="1" parent="1">
          <mxGeometry x="140" y="40" width="80" height="80" as="geometry" />
        </mxCell>
        <mxCell id="MKaenRL1xMwM7ThxQxj5-67" style="edgeStyle=none;shape=connector;rounded=0;orthogonalLoop=1;jettySize=auto;html=1;exitX=1;exitY=0.5;exitDx=0;exitDy=0;entryX=0;entryY=0.5;entryDx=0;entryDy=0;labelBackgroundColor=default;strokeColor=default;fontFamily=Helvetica;fontSize=11;fontColor=default;endArrow=classic;" edge="1" parent="1" source="MKaenRL1xMwM7ThxQxj5-2" target="MKaenRL1xMwM7ThxQxj5-19">
          <mxGeometry relative="1" as="geometry" />
        </mxCell>
        <mxCell id="MKaenRL1xMwM7ThxQxj5-68" style="edgeStyle=none;shape=connector;rounded=0;orthogonalLoop=1;jettySize=auto;html=1;exitX=1;exitY=0.5;exitDx=0;exitDy=0;entryX=0;entryY=0.5;entryDx=0;entryDy=0;labelBackgroundColor=default;strokeColor=default;fontFamily=Helvetica;fontSize=11;fontColor=default;endArrow=classic;" edge="1" parent="1" source="MKaenRL1xMwM7ThxQxj5-2" target="MKaenRL1xMwM7ThxQxj5-20">
          <mxGeometry relative="1" as="geometry" />
        </mxCell>
        <mxCell id="MKaenRL1xMwM7ThxQxj5-69" style="edgeStyle=none;shape=connector;rounded=0;orthogonalLoop=1;jettySize=auto;html=1;exitX=1;exitY=0.5;exitDx=0;exitDy=0;entryX=0;entryY=0.5;entryDx=0;entryDy=0;labelBackgroundColor=default;strokeColor=default;fontFamily=Helvetica;fontSize=11;fontColor=default;endArrow=classic;" edge="1" parent="1" source="MKaenRL1xMwM7ThxQxj5-2" target="MKaenRL1xMwM7ThxQxj5-21">
          <mxGeometry relative="1" as="geometry" />
        </mxCell>
        <mxCell id="MKaenRL1xMwM7ThxQxj5-70" style="edgeStyle=none;shape=connector;rounded=0;orthogonalLoop=1;jettySize=auto;html=1;exitX=1;exitY=0.5;exitDx=0;exitDy=0;entryX=0;entryY=0.5;entryDx=0;entryDy=0;labelBackgroundColor=default;strokeColor=default;fontFamily=Helvetica;fontSize=11;fontColor=default;endArrow=classic;" edge="1" parent="1" source="MKaenRL1xMwM7ThxQxj5-2" target="MKaenRL1xMwM7ThxQxj5-22">
          <mxGeometry relative="1" as="geometry" />
        </mxCell>
        <mxCell id="MKaenRL1xMwM7ThxQxj5-71" style="edgeStyle=none;shape=connector;rounded=0;orthogonalLoop=1;jettySize=auto;html=1;exitX=1;exitY=0.5;exitDx=0;exitDy=0;entryX=0;entryY=0.5;entryDx=0;entryDy=0;labelBackgroundColor=default;strokeColor=default;fontFamily=Helvetica;fontSize=11;fontColor=default;endArrow=classic;" edge="1" parent="1" source="MKaenRL1xMwM7ThxQxj5-2" target="MKaenRL1xMwM7ThxQxj5-23">
          <mxGeometry relative="1" as="geometry" />
        </mxCell>
        <mxCell id="MKaenRL1xMwM7ThxQxj5-2" value="Input 2" style="ellipse;whiteSpace=wrap;html=1;aspect=fixed;" vertex="1" parent="1">
          <mxGeometry x="140" y="160" width="80" height="80" as="geometry" />
        </mxCell>
        <mxCell id="MKaenRL1xMwM7ThxQxj5-8" style="edgeStyle=orthogonalEdgeStyle;rounded=0;orthogonalLoop=1;jettySize=auto;html=1;endArrow=none;endFill=0;dashed=1;targetPerimeterSpacing=-7;sourcePerimeterSpacing=4;strokeWidth=2;dashPattern=1 2;" edge="1" parent="1">
          <mxGeometry relative="1" as="geometry">
            <mxPoint x="179.29" y="610" as="sourcePoint" />
            <mxPoint x="179.29" y="670" as="targetPoint" />
          </mxGeometry>
        </mxCell>
        <mxCell id="MKaenRL1xMwM7ThxQxj5-72" style="edgeStyle=none;shape=connector;rounded=0;orthogonalLoop=1;jettySize=auto;html=1;exitX=1;exitY=0.5;exitDx=0;exitDy=0;labelBackgroundColor=default;strokeColor=default;fontFamily=Helvetica;fontSize=11;fontColor=default;endArrow=classic;" edge="1" parent="1" source="MKaenRL1xMwM7ThxQxj5-3">
          <mxGeometry relative="1" as="geometry">
            <mxPoint x="330" y="119.99999999999989" as="targetPoint" />
          </mxGeometry>
        </mxCell>
        <mxCell id="MKaenRL1xMwM7ThxQxj5-74" style="edgeStyle=none;shape=connector;rounded=0;orthogonalLoop=1;jettySize=auto;html=1;exitX=1;exitY=0.5;exitDx=0;exitDy=0;labelBackgroundColor=default;strokeColor=default;fontFamily=Helvetica;fontSize=11;fontColor=default;endArrow=classic;" edge="1" parent="1" source="MKaenRL1xMwM7ThxQxj5-3">
          <mxGeometry relative="1" as="geometry">
            <mxPoint x="330" y="240" as="targetPoint" />
          </mxGeometry>
        </mxCell>
        <mxCell id="MKaenRL1xMwM7ThxQxj5-75" style="edgeStyle=none;shape=connector;rounded=0;orthogonalLoop=1;jettySize=auto;html=1;exitX=1;exitY=0.5;exitDx=0;exitDy=0;labelBackgroundColor=default;strokeColor=default;fontFamily=Helvetica;fontSize=11;fontColor=default;endArrow=classic;" edge="1" parent="1" source="MKaenRL1xMwM7ThxQxj5-3">
          <mxGeometry relative="1" as="geometry">
            <mxPoint x="330" y="360" as="targetPoint" />
          </mxGeometry>
        </mxCell>
        <mxCell id="MKaenRL1xMwM7ThxQxj5-76" style="edgeStyle=none;shape=connector;rounded=0;orthogonalLoop=1;jettySize=auto;html=1;exitX=1;exitY=0.5;exitDx=0;exitDy=0;entryX=0;entryY=0.5;entryDx=0;entryDy=0;labelBackgroundColor=default;strokeColor=default;fontFamily=Helvetica;fontSize=11;fontColor=default;endArrow=classic;" edge="1" parent="1" source="MKaenRL1xMwM7ThxQxj5-3" target="MKaenRL1xMwM7ThxQxj5-22">
          <mxGeometry relative="1" as="geometry" />
        </mxCell>
        <mxCell id="MKaenRL1xMwM7ThxQxj5-77" style="edgeStyle=none;shape=connector;rounded=0;orthogonalLoop=1;jettySize=auto;html=1;exitX=1;exitY=0.5;exitDx=0;exitDy=0;entryX=0;entryY=0.5;entryDx=0;entryDy=0;labelBackgroundColor=default;strokeColor=default;fontFamily=Helvetica;fontSize=11;fontColor=default;endArrow=classic;" edge="1" parent="1" source="MKaenRL1xMwM7ThxQxj5-3" target="MKaenRL1xMwM7ThxQxj5-23">
          <mxGeometry relative="1" as="geometry" />
        </mxCell>
        <mxCell id="MKaenRL1xMwM7ThxQxj5-3" value="Input 3" style="ellipse;whiteSpace=wrap;html=1;aspect=fixed;" vertex="1" parent="1">
          <mxGeometry x="140" y="280" width="80" height="80" as="geometry" />
        </mxCell>
        <mxCell id="MKaenRL1xMwM7ThxQxj5-89" style="edgeStyle=none;shape=connector;rounded=0;orthogonalLoop=1;jettySize=auto;html=1;exitX=1;exitY=0.5;exitDx=0;exitDy=0;entryX=0;entryY=0.5;entryDx=0;entryDy=0;labelBackgroundColor=default;strokeColor=default;fontFamily=Helvetica;fontSize=11;fontColor=default;endArrow=classic;" edge="1" parent="1" source="MKaenRL1xMwM7ThxQxj5-7" target="MKaenRL1xMwM7ThxQxj5-19">
          <mxGeometry relative="1" as="geometry" />
        </mxCell>
        <mxCell id="MKaenRL1xMwM7ThxQxj5-90" style="edgeStyle=none;shape=connector;rounded=0;orthogonalLoop=1;jettySize=auto;html=1;exitX=1;exitY=0.5;exitDx=0;exitDy=0;entryX=0;entryY=0.5;entryDx=0;entryDy=0;labelBackgroundColor=default;strokeColor=default;fontFamily=Helvetica;fontSize=11;fontColor=default;endArrow=classic;" edge="1" parent="1" source="MKaenRL1xMwM7ThxQxj5-7" target="MKaenRL1xMwM7ThxQxj5-20">
          <mxGeometry relative="1" as="geometry" />
        </mxCell>
        <mxCell id="MKaenRL1xMwM7ThxQxj5-91" style="edgeStyle=none;shape=connector;rounded=0;orthogonalLoop=1;jettySize=auto;html=1;exitX=1;exitY=0.5;exitDx=0;exitDy=0;entryX=0;entryY=0.5;entryDx=0;entryDy=0;labelBackgroundColor=default;strokeColor=default;fontFamily=Helvetica;fontSize=11;fontColor=default;endArrow=classic;" edge="1" parent="1" source="MKaenRL1xMwM7ThxQxj5-7" target="MKaenRL1xMwM7ThxQxj5-21">
          <mxGeometry relative="1" as="geometry" />
        </mxCell>
        <mxCell id="MKaenRL1xMwM7ThxQxj5-92" style="edgeStyle=none;shape=connector;rounded=0;orthogonalLoop=1;jettySize=auto;html=1;exitX=1;exitY=0.5;exitDx=0;exitDy=0;entryX=0;entryY=0.5;entryDx=0;entryDy=0;labelBackgroundColor=default;strokeColor=default;fontFamily=Helvetica;fontSize=11;fontColor=default;endArrow=classic;" edge="1" parent="1" source="MKaenRL1xMwM7ThxQxj5-7" target="MKaenRL1xMwM7ThxQxj5-22">
          <mxGeometry relative="1" as="geometry" />
        </mxCell>
        <mxCell id="MKaenRL1xMwM7ThxQxj5-93" style="edgeStyle=none;shape=connector;rounded=0;orthogonalLoop=1;jettySize=auto;html=1;exitX=1;exitY=0.5;exitDx=0;exitDy=0;entryX=0;entryY=0.5;entryDx=0;entryDy=0;labelBackgroundColor=default;strokeColor=default;fontFamily=Helvetica;fontSize=11;fontColor=default;endArrow=classic;" edge="1" parent="1" source="MKaenRL1xMwM7ThxQxj5-7" target="MKaenRL1xMwM7ThxQxj5-23">
          <mxGeometry relative="1" as="geometry" />
        </mxCell>
        <mxCell id="MKaenRL1xMwM7ThxQxj5-7" value="Input 24" style="ellipse;whiteSpace=wrap;html=1;aspect=fixed;" vertex="1" parent="1">
          <mxGeometry x="140" y="680" width="80" height="80" as="geometry" />
        </mxCell>
        <mxCell id="MKaenRL1xMwM7ThxQxj5-78" style="edgeStyle=none;shape=connector;rounded=0;orthogonalLoop=1;jettySize=auto;html=1;exitX=1;exitY=0.5;exitDx=0;exitDy=0;entryX=0;entryY=0.5;entryDx=0;entryDy=0;labelBackgroundColor=default;strokeColor=default;fontFamily=Helvetica;fontSize=11;fontColor=default;endArrow=classic;" edge="1" parent="1" source="MKaenRL1xMwM7ThxQxj5-10" target="MKaenRL1xMwM7ThxQxj5-19">
          <mxGeometry relative="1" as="geometry" />
        </mxCell>
        <mxCell id="MKaenRL1xMwM7ThxQxj5-79" style="edgeStyle=none;shape=connector;rounded=0;orthogonalLoop=1;jettySize=auto;html=1;exitX=1;exitY=0.5;exitDx=0;exitDy=0;entryX=0;entryY=0.5;entryDx=0;entryDy=0;labelBackgroundColor=default;strokeColor=default;fontFamily=Helvetica;fontSize=11;fontColor=default;endArrow=classic;" edge="1" parent="1" source="MKaenRL1xMwM7ThxQxj5-10" target="MKaenRL1xMwM7ThxQxj5-20">
          <mxGeometry relative="1" as="geometry" />
        </mxCell>
        <mxCell id="MKaenRL1xMwM7ThxQxj5-80" style="edgeStyle=none;shape=connector;rounded=0;orthogonalLoop=1;jettySize=auto;html=1;exitX=1;exitY=0.5;exitDx=0;exitDy=0;entryX=0;entryY=0.5;entryDx=0;entryDy=0;labelBackgroundColor=default;strokeColor=default;fontFamily=Helvetica;fontSize=11;fontColor=default;endArrow=classic;" edge="1" parent="1" source="MKaenRL1xMwM7ThxQxj5-10" target="MKaenRL1xMwM7ThxQxj5-21">
          <mxGeometry relative="1" as="geometry" />
        </mxCell>
        <mxCell id="MKaenRL1xMwM7ThxQxj5-81" style="edgeStyle=none;shape=connector;rounded=0;orthogonalLoop=1;jettySize=auto;html=1;exitX=1;exitY=0.5;exitDx=0;exitDy=0;entryX=0;entryY=0.5;entryDx=0;entryDy=0;labelBackgroundColor=default;strokeColor=default;fontFamily=Helvetica;fontSize=11;fontColor=default;endArrow=classic;" edge="1" parent="1" source="MKaenRL1xMwM7ThxQxj5-10" target="MKaenRL1xMwM7ThxQxj5-22">
          <mxGeometry relative="1" as="geometry" />
        </mxCell>
        <mxCell id="MKaenRL1xMwM7ThxQxj5-83" style="edgeStyle=none;shape=connector;rounded=0;orthogonalLoop=1;jettySize=auto;html=1;exitX=1;exitY=0.5;exitDx=0;exitDy=0;entryX=0;entryY=0.5;entryDx=0;entryDy=0;labelBackgroundColor=default;strokeColor=default;fontFamily=Helvetica;fontSize=11;fontColor=default;endArrow=classic;" edge="1" parent="1" source="MKaenRL1xMwM7ThxQxj5-10" target="MKaenRL1xMwM7ThxQxj5-23">
          <mxGeometry relative="1" as="geometry" />
        </mxCell>
        <mxCell id="MKaenRL1xMwM7ThxQxj5-10" value="Input 4" style="ellipse;whiteSpace=wrap;html=1;aspect=fixed;" vertex="1" parent="1">
          <mxGeometry x="140" y="400" width="80" height="80" as="geometry" />
        </mxCell>
        <mxCell id="MKaenRL1xMwM7ThxQxj5-84" style="edgeStyle=none;shape=connector;rounded=0;orthogonalLoop=1;jettySize=auto;html=1;exitX=1;exitY=0.5;exitDx=0;exitDy=0;entryX=0;entryY=0.5;entryDx=0;entryDy=0;labelBackgroundColor=default;strokeColor=default;fontFamily=Helvetica;fontSize=11;fontColor=default;endArrow=classic;" edge="1" parent="1" source="MKaenRL1xMwM7ThxQxj5-11" target="MKaenRL1xMwM7ThxQxj5-19">
          <mxGeometry relative="1" as="geometry" />
        </mxCell>
        <mxCell id="MKaenRL1xMwM7ThxQxj5-85" style="edgeStyle=none;shape=connector;rounded=0;orthogonalLoop=1;jettySize=auto;html=1;exitX=1;exitY=0.5;exitDx=0;exitDy=0;entryX=0;entryY=0.5;entryDx=0;entryDy=0;labelBackgroundColor=default;strokeColor=default;fontFamily=Helvetica;fontSize=11;fontColor=default;endArrow=classic;" edge="1" parent="1" source="MKaenRL1xMwM7ThxQxj5-11" target="MKaenRL1xMwM7ThxQxj5-20">
          <mxGeometry relative="1" as="geometry" />
        </mxCell>
        <mxCell id="MKaenRL1xMwM7ThxQxj5-86" style="edgeStyle=none;shape=connector;rounded=0;orthogonalLoop=1;jettySize=auto;html=1;exitX=1;exitY=0.5;exitDx=0;exitDy=0;entryX=0;entryY=0.5;entryDx=0;entryDy=0;labelBackgroundColor=default;strokeColor=default;fontFamily=Helvetica;fontSize=11;fontColor=default;endArrow=classic;" edge="1" parent="1" source="MKaenRL1xMwM7ThxQxj5-11" target="MKaenRL1xMwM7ThxQxj5-21">
          <mxGeometry relative="1" as="geometry" />
        </mxCell>
        <mxCell id="MKaenRL1xMwM7ThxQxj5-87" style="edgeStyle=none;shape=connector;rounded=0;orthogonalLoop=1;jettySize=auto;html=1;exitX=1;exitY=0.5;exitDx=0;exitDy=0;entryX=0;entryY=0.5;entryDx=0;entryDy=0;labelBackgroundColor=default;strokeColor=default;fontFamily=Helvetica;fontSize=11;fontColor=default;endArrow=classic;" edge="1" parent="1" source="MKaenRL1xMwM7ThxQxj5-11" target="MKaenRL1xMwM7ThxQxj5-22">
          <mxGeometry relative="1" as="geometry" />
        </mxCell>
        <mxCell id="MKaenRL1xMwM7ThxQxj5-88" style="edgeStyle=none;shape=connector;rounded=0;orthogonalLoop=1;jettySize=auto;html=1;exitX=1;exitY=0.5;exitDx=0;exitDy=0;entryX=0;entryY=0.5;entryDx=0;entryDy=0;labelBackgroundColor=default;strokeColor=default;fontFamily=Helvetica;fontSize=11;fontColor=default;endArrow=classic;" edge="1" parent="1" source="MKaenRL1xMwM7ThxQxj5-11" target="MKaenRL1xMwM7ThxQxj5-23">
          <mxGeometry relative="1" as="geometry" />
        </mxCell>
        <mxCell id="MKaenRL1xMwM7ThxQxj5-11" value="Input 5" style="ellipse;whiteSpace=wrap;html=1;aspect=fixed;" vertex="1" parent="1">
          <mxGeometry x="140" y="520" width="80" height="80" as="geometry" />
        </mxCell>
        <mxCell id="MKaenRL1xMwM7ThxQxj5-12" value="Input Vector" style="rounded=0;whiteSpace=wrap;html=1;dashed=1;dashPattern=8 8;rotation=-90;" vertex="1" parent="1">
          <mxGeometry x="-300" y="384" width="730" height="30" as="geometry" />
        </mxCell>
        <mxCell id="MKaenRL1xMwM7ThxQxj5-13" value="" style="endArrow=classic;html=1;rounded=0;entryX=0;entryY=0.5;entryDx=0;entryDy=0;" edge="1" parent="1" target="MKaenRL1xMwM7ThxQxj5-1">
          <mxGeometry width="50" height="50" relative="1" as="geometry">
            <mxPoint x="90" y="80" as="sourcePoint" />
            <mxPoint x="330" y="230" as="targetPoint" />
          </mxGeometry>
        </mxCell>
        <mxCell id="MKaenRL1xMwM7ThxQxj5-14" value="" style="endArrow=classic;html=1;rounded=0;entryX=0;entryY=0.5;entryDx=0;entryDy=0;exitX=1.063;exitY=0.054;exitDx=0;exitDy=0;exitPerimeter=0;" edge="1" parent="1">
          <mxGeometry width="50" height="50" relative="1" as="geometry">
            <mxPoint x="93" y="199.5" as="sourcePoint" />
            <mxPoint x="140" y="200.5" as="targetPoint" />
          </mxGeometry>
        </mxCell>
        <mxCell id="MKaenRL1xMwM7ThxQxj5-15" value="" style="endArrow=classic;html=1;rounded=0;entryX=0;entryY=0.5;entryDx=0;entryDy=0;exitX=1.063;exitY=0.054;exitDx=0;exitDy=0;exitPerimeter=0;" edge="1" parent="1">
          <mxGeometry width="50" height="50" relative="1" as="geometry">
            <mxPoint x="93" y="319.5" as="sourcePoint" />
            <mxPoint x="140" y="320.5" as="targetPoint" />
          </mxGeometry>
        </mxCell>
        <mxCell id="MKaenRL1xMwM7ThxQxj5-16" value="" style="endArrow=classic;html=1;rounded=0;entryX=0;entryY=0.5;entryDx=0;entryDy=0;exitX=1.063;exitY=0.054;exitDx=0;exitDy=0;exitPerimeter=0;" edge="1" parent="1">
          <mxGeometry width="50" height="50" relative="1" as="geometry">
            <mxPoint x="93" y="439.5" as="sourcePoint" />
            <mxPoint x="140" y="440.5" as="targetPoint" />
          </mxGeometry>
        </mxCell>
        <mxCell id="MKaenRL1xMwM7ThxQxj5-17" value="" style="endArrow=classic;html=1;rounded=0;entryX=0;entryY=0.5;entryDx=0;entryDy=0;exitX=1.063;exitY=0.054;exitDx=0;exitDy=0;exitPerimeter=0;" edge="1" parent="1">
          <mxGeometry width="50" height="50" relative="1" as="geometry">
            <mxPoint x="93" y="559.5" as="sourcePoint" />
            <mxPoint x="140" y="560.5" as="targetPoint" />
          </mxGeometry>
        </mxCell>
        <mxCell id="MKaenRL1xMwM7ThxQxj5-18" value="" style="endArrow=classic;html=1;rounded=0;entryX=0;entryY=0.5;entryDx=0;entryDy=0;exitX=1.063;exitY=0.054;exitDx=0;exitDy=0;exitPerimeter=0;" edge="1" parent="1">
          <mxGeometry width="50" height="50" relative="1" as="geometry">
            <mxPoint x="93" y="719.5" as="sourcePoint" />
            <mxPoint x="140" y="720.5" as="targetPoint" />
          </mxGeometry>
        </mxCell>
        <mxCell id="MKaenRL1xMwM7ThxQxj5-94" style="edgeStyle=none;shape=connector;rounded=0;orthogonalLoop=1;jettySize=auto;html=1;exitX=1;exitY=0.5;exitDx=0;exitDy=0;entryX=0;entryY=0.5;entryDx=0;entryDy=0;labelBackgroundColor=default;strokeColor=default;fontFamily=Helvetica;fontSize=11;fontColor=default;endArrow=classic;" edge="1" parent="1" source="MKaenRL1xMwM7ThxQxj5-19" target="MKaenRL1xMwM7ThxQxj5-50">
          <mxGeometry relative="1" as="geometry" />
        </mxCell>
        <mxCell id="MKaenRL1xMwM7ThxQxj5-19" value="Node 1,1" style="ellipse;whiteSpace=wrap;html=1;aspect=fixed;" vertex="1" parent="1">
          <mxGeometry x="330" y="80" width="80" height="80" as="geometry" />
        </mxCell>
        <mxCell id="MKaenRL1xMwM7ThxQxj5-95" style="edgeStyle=none;shape=connector;rounded=0;orthogonalLoop=1;jettySize=auto;html=1;exitX=1;exitY=0.5;exitDx=0;exitDy=0;entryX=0;entryY=0.5;entryDx=0;entryDy=0;labelBackgroundColor=default;strokeColor=default;fontFamily=Helvetica;fontSize=11;fontColor=default;endArrow=classic;" edge="1" parent="1" source="MKaenRL1xMwM7ThxQxj5-20" target="MKaenRL1xMwM7ThxQxj5-51">
          <mxGeometry relative="1" as="geometry" />
        </mxCell>
        <mxCell id="MKaenRL1xMwM7ThxQxj5-20" value="Node 2,1" style="ellipse;whiteSpace=wrap;html=1;aspect=fixed;" vertex="1" parent="1">
          <mxGeometry x="330" y="200" width="80" height="80" as="geometry" />
        </mxCell>
        <mxCell id="MKaenRL1xMwM7ThxQxj5-96" style="edgeStyle=none;shape=connector;rounded=0;orthogonalLoop=1;jettySize=auto;html=1;exitX=1;exitY=0.5;exitDx=0;exitDy=0;entryX=0;entryY=0.5;entryDx=0;entryDy=0;labelBackgroundColor=default;strokeColor=default;fontFamily=Helvetica;fontSize=11;fontColor=default;endArrow=classic;" edge="1" parent="1" source="MKaenRL1xMwM7ThxQxj5-21" target="MKaenRL1xMwM7ThxQxj5-52">
          <mxGeometry relative="1" as="geometry" />
        </mxCell>
        <mxCell id="MKaenRL1xMwM7ThxQxj5-21" value="Node 3,1" style="ellipse;whiteSpace=wrap;html=1;aspect=fixed;" vertex="1" parent="1">
          <mxGeometry x="330" y="320" width="80" height="80" as="geometry" />
        </mxCell>
        <mxCell id="MKaenRL1xMwM7ThxQxj5-97" style="edgeStyle=none;shape=connector;rounded=0;orthogonalLoop=1;jettySize=auto;html=1;exitX=1;exitY=0.5;exitDx=0;exitDy=0;entryX=0;entryY=0.5;entryDx=0;entryDy=0;labelBackgroundColor=default;strokeColor=default;fontFamily=Helvetica;fontSize=11;fontColor=default;endArrow=classic;" edge="1" parent="1" source="MKaenRL1xMwM7ThxQxj5-22" target="MKaenRL1xMwM7ThxQxj5-53">
          <mxGeometry relative="1" as="geometry" />
        </mxCell>
        <mxCell id="MKaenRL1xMwM7ThxQxj5-22" value="Node 4,1" style="ellipse;whiteSpace=wrap;html=1;aspect=fixed;" vertex="1" parent="1">
          <mxGeometry x="330" y="440" width="80" height="80" as="geometry" />
        </mxCell>
        <mxCell id="MKaenRL1xMwM7ThxQxj5-98" style="edgeStyle=none;shape=connector;rounded=0;orthogonalLoop=1;jettySize=auto;html=1;exitX=1;exitY=0.5;exitDx=0;exitDy=0;entryX=0;entryY=0.5;entryDx=0;entryDy=0;labelBackgroundColor=default;strokeColor=default;fontFamily=Helvetica;fontSize=11;fontColor=default;endArrow=classic;" edge="1" parent="1" source="MKaenRL1xMwM7ThxQxj5-23" target="MKaenRL1xMwM7ThxQxj5-54">
          <mxGeometry relative="1" as="geometry" />
        </mxCell>
        <mxCell id="MKaenRL1xMwM7ThxQxj5-23" value="Node N, 1" style="ellipse;whiteSpace=wrap;html=1;aspect=fixed;" vertex="1" parent="1">
          <mxGeometry x="330" y="600" width="80" height="80" as="geometry" />
        </mxCell>
        <mxCell id="MKaenRL1xMwM7ThxQxj5-25" style="edgeStyle=orthogonalEdgeStyle;rounded=0;orthogonalLoop=1;jettySize=auto;html=1;endArrow=none;endFill=0;dashed=1;targetPerimeterSpacing=-7;sourcePerimeterSpacing=4;strokeWidth=2;dashPattern=1 2;" edge="1" parent="1">
          <mxGeometry relative="1" as="geometry">
            <mxPoint x="369.65999999999997" y="530" as="sourcePoint" />
            <mxPoint x="369.65999999999997" y="590" as="targetPoint" />
          </mxGeometry>
        </mxCell>
        <mxCell id="MKaenRL1xMwM7ThxQxj5-124" style="edgeStyle=none;shape=connector;rounded=0;orthogonalLoop=1;jettySize=auto;html=1;exitX=1;exitY=0.5;exitDx=0;exitDy=0;entryX=0;entryY=0.5;entryDx=0;entryDy=0;labelBackgroundColor=default;strokeColor=default;fontFamily=Helvetica;fontSize=11;fontColor=default;endArrow=classic;" edge="1" parent="1" source="MKaenRL1xMwM7ThxQxj5-31" target="MKaenRL1xMwM7ThxQxj5-56">
          <mxGeometry relative="1" as="geometry" />
        </mxCell>
        <mxCell id="MKaenRL1xMwM7ThxQxj5-31" value="Node 1,2" style="ellipse;whiteSpace=wrap;html=1;aspect=fixed;" vertex="1" parent="1">
          <mxGeometry x="590" y="80" width="80" height="80" as="geometry" />
        </mxCell>
        <mxCell id="MKaenRL1xMwM7ThxQxj5-126" style="edgeStyle=none;shape=connector;rounded=0;orthogonalLoop=1;jettySize=auto;html=1;exitX=1;exitY=0.5;exitDx=0;exitDy=0;entryX=0;entryY=0.5;entryDx=0;entryDy=0;labelBackgroundColor=default;strokeColor=default;fontFamily=Helvetica;fontSize=11;fontColor=default;endArrow=classic;" edge="1" parent="1" source="MKaenRL1xMwM7ThxQxj5-32" target="MKaenRL1xMwM7ThxQxj5-57">
          <mxGeometry relative="1" as="geometry" />
        </mxCell>
        <mxCell id="MKaenRL1xMwM7ThxQxj5-32" value="Node 2,2" style="ellipse;whiteSpace=wrap;html=1;aspect=fixed;" vertex="1" parent="1">
          <mxGeometry x="590" y="200" width="80" height="80" as="geometry" />
        </mxCell>
        <mxCell id="MKaenRL1xMwM7ThxQxj5-127" style="edgeStyle=none;shape=connector;rounded=0;orthogonalLoop=1;jettySize=auto;html=1;exitX=1;exitY=0.5;exitDx=0;exitDy=0;entryX=0;entryY=0.5;entryDx=0;entryDy=0;labelBackgroundColor=default;strokeColor=default;fontFamily=Helvetica;fontSize=11;fontColor=default;endArrow=classic;" edge="1" parent="1" source="MKaenRL1xMwM7ThxQxj5-33" target="MKaenRL1xMwM7ThxQxj5-58">
          <mxGeometry relative="1" as="geometry" />
        </mxCell>
        <mxCell id="MKaenRL1xMwM7ThxQxj5-33" value="Node 3,2" style="ellipse;whiteSpace=wrap;html=1;aspect=fixed;" vertex="1" parent="1">
          <mxGeometry x="590" y="320" width="80" height="80" as="geometry" />
        </mxCell>
        <mxCell id="MKaenRL1xMwM7ThxQxj5-128" style="edgeStyle=none;shape=connector;rounded=0;orthogonalLoop=1;jettySize=auto;html=1;exitX=1;exitY=0.5;exitDx=0;exitDy=0;entryX=0;entryY=0.5;entryDx=0;entryDy=0;labelBackgroundColor=default;strokeColor=default;fontFamily=Helvetica;fontSize=11;fontColor=default;endArrow=classic;" edge="1" parent="1" source="MKaenRL1xMwM7ThxQxj5-34" target="MKaenRL1xMwM7ThxQxj5-59">
          <mxGeometry relative="1" as="geometry" />
        </mxCell>
        <mxCell id="MKaenRL1xMwM7ThxQxj5-34" value="Node 4,2" style="ellipse;whiteSpace=wrap;html=1;aspect=fixed;" vertex="1" parent="1">
          <mxGeometry x="590" y="440" width="80" height="80" as="geometry" />
        </mxCell>
        <mxCell id="MKaenRL1xMwM7ThxQxj5-129" style="edgeStyle=none;shape=connector;rounded=0;orthogonalLoop=1;jettySize=auto;html=1;exitX=1;exitY=0.5;exitDx=0;exitDy=0;entryX=0;entryY=0.5;entryDx=0;entryDy=0;labelBackgroundColor=default;strokeColor=default;fontFamily=Helvetica;fontSize=11;fontColor=default;endArrow=classic;" edge="1" parent="1" source="MKaenRL1xMwM7ThxQxj5-35" target="MKaenRL1xMwM7ThxQxj5-60">
          <mxGeometry relative="1" as="geometry" />
        </mxCell>
        <mxCell id="MKaenRL1xMwM7ThxQxj5-35" value="Node N,2" style="ellipse;whiteSpace=wrap;html=1;aspect=fixed;" vertex="1" parent="1">
          <mxGeometry x="590" y="600" width="80" height="80" as="geometry" />
        </mxCell>
        <mxCell id="MKaenRL1xMwM7ThxQxj5-36" style="edgeStyle=orthogonalEdgeStyle;rounded=0;orthogonalLoop=1;jettySize=auto;html=1;endArrow=none;endFill=0;dashed=1;targetPerimeterSpacing=-7;sourcePerimeterSpacing=4;strokeWidth=2;dashPattern=1 2;" edge="1" parent="1">
          <mxGeometry relative="1" as="geometry">
            <mxPoint x="629.66" y="530" as="sourcePoint" />
            <mxPoint x="629.66" y="590" as="targetPoint" />
          </mxGeometry>
        </mxCell>
        <mxCell id="MKaenRL1xMwM7ThxQxj5-162" style="edgeStyle=none;shape=connector;rounded=0;orthogonalLoop=1;jettySize=auto;html=1;exitX=1;exitY=0.5;exitDx=0;exitDy=0;labelBackgroundColor=default;strokeColor=default;fontFamily=Helvetica;fontSize=11;fontColor=default;endArrow=classic;" edge="1" parent="1" source="MKaenRL1xMwM7ThxQxj5-43">
          <mxGeometry relative="1" as="geometry">
            <mxPoint x="960" y="79.57142857142867" as="targetPoint" />
          </mxGeometry>
        </mxCell>
        <mxCell id="MKaenRL1xMwM7ThxQxj5-43" value="Output 1" style="ellipse;whiteSpace=wrap;html=1;aspect=fixed;" vertex="1" parent="1">
          <mxGeometry x="840" y="39" width="80" height="80" as="geometry" />
        </mxCell>
        <mxCell id="MKaenRL1xMwM7ThxQxj5-163" style="edgeStyle=none;shape=connector;rounded=0;orthogonalLoop=1;jettySize=auto;html=1;exitX=1;exitY=0.5;exitDx=0;exitDy=0;labelBackgroundColor=default;strokeColor=default;fontFamily=Helvetica;fontSize=11;fontColor=default;endArrow=classic;" edge="1" parent="1" source="MKaenRL1xMwM7ThxQxj5-44">
          <mxGeometry relative="1" as="geometry">
            <mxPoint x="960" y="199.57142857142867" as="targetPoint" />
          </mxGeometry>
        </mxCell>
        <mxCell id="MKaenRL1xMwM7ThxQxj5-44" value="Output 2" style="ellipse;whiteSpace=wrap;html=1;aspect=fixed;" vertex="1" parent="1">
          <mxGeometry x="840" y="159" width="80" height="80" as="geometry" />
        </mxCell>
        <mxCell id="MKaenRL1xMwM7ThxQxj5-45" style="edgeStyle=orthogonalEdgeStyle;rounded=0;orthogonalLoop=1;jettySize=auto;html=1;endArrow=none;endFill=0;dashed=1;targetPerimeterSpacing=-7;sourcePerimeterSpacing=4;strokeWidth=2;dashPattern=1 2;" edge="1" parent="1">
          <mxGeometry relative="1" as="geometry">
            <mxPoint x="879.29" y="609" as="sourcePoint" />
            <mxPoint x="879.29" y="669" as="targetPoint" />
          </mxGeometry>
        </mxCell>
        <mxCell id="MKaenRL1xMwM7ThxQxj5-164" style="edgeStyle=none;shape=connector;rounded=0;orthogonalLoop=1;jettySize=auto;html=1;exitX=1;exitY=0.5;exitDx=0;exitDy=0;labelBackgroundColor=default;strokeColor=default;fontFamily=Helvetica;fontSize=11;fontColor=default;endArrow=classic;" edge="1" parent="1" source="MKaenRL1xMwM7ThxQxj5-46">
          <mxGeometry relative="1" as="geometry">
            <mxPoint x="960" y="319.57142857142867" as="targetPoint" />
          </mxGeometry>
        </mxCell>
        <mxCell id="MKaenRL1xMwM7ThxQxj5-46" value="Output 3" style="ellipse;whiteSpace=wrap;html=1;aspect=fixed;" vertex="1" parent="1">
          <mxGeometry x="840" y="279" width="80" height="80" as="geometry" />
        </mxCell>
        <mxCell id="MKaenRL1xMwM7ThxQxj5-167" style="edgeStyle=none;shape=connector;rounded=0;orthogonalLoop=1;jettySize=auto;html=1;exitX=1;exitY=0.5;exitDx=0;exitDy=0;labelBackgroundColor=default;strokeColor=default;fontFamily=Helvetica;fontSize=11;fontColor=default;endArrow=classic;" edge="1" parent="1" source="MKaenRL1xMwM7ThxQxj5-47">
          <mxGeometry relative="1" as="geometry">
            <mxPoint x="960" y="719.5714285714287" as="targetPoint" />
          </mxGeometry>
        </mxCell>
        <mxCell id="MKaenRL1xMwM7ThxQxj5-47" value="Output 6" style="ellipse;whiteSpace=wrap;html=1;aspect=fixed;" vertex="1" parent="1">
          <mxGeometry x="840" y="679" width="80" height="80" as="geometry" />
        </mxCell>
        <mxCell id="MKaenRL1xMwM7ThxQxj5-165" style="edgeStyle=none;shape=connector;rounded=0;orthogonalLoop=1;jettySize=auto;html=1;exitX=1;exitY=0.5;exitDx=0;exitDy=0;labelBackgroundColor=default;strokeColor=default;fontFamily=Helvetica;fontSize=11;fontColor=default;endArrow=classic;" edge="1" parent="1" source="MKaenRL1xMwM7ThxQxj5-48">
          <mxGeometry relative="1" as="geometry">
            <mxPoint x="960" y="439.57142857142867" as="targetPoint" />
          </mxGeometry>
        </mxCell>
        <mxCell id="MKaenRL1xMwM7ThxQxj5-48" value="Output 4" style="ellipse;whiteSpace=wrap;html=1;aspect=fixed;" vertex="1" parent="1">
          <mxGeometry x="840" y="399" width="80" height="80" as="geometry" />
        </mxCell>
        <mxCell id="MKaenRL1xMwM7ThxQxj5-166" style="edgeStyle=none;shape=connector;rounded=0;orthogonalLoop=1;jettySize=auto;html=1;exitX=1;exitY=0.5;exitDx=0;exitDy=0;labelBackgroundColor=default;strokeColor=default;fontFamily=Helvetica;fontSize=11;fontColor=default;endArrow=classic;" edge="1" parent="1" source="MKaenRL1xMwM7ThxQxj5-49">
          <mxGeometry relative="1" as="geometry">
            <mxPoint x="960" y="559.5714285714287" as="targetPoint" />
          </mxGeometry>
        </mxCell>
        <mxCell id="MKaenRL1xMwM7ThxQxj5-49" value="Output 5" style="ellipse;whiteSpace=wrap;html=1;aspect=fixed;" vertex="1" parent="1">
          <mxGeometry x="840" y="519" width="80" height="80" as="geometry" />
        </mxCell>
        <mxCell id="MKaenRL1xMwM7ThxQxj5-99" style="edgeStyle=none;shape=connector;rounded=0;orthogonalLoop=1;jettySize=auto;html=1;exitX=1;exitY=0.5;exitDx=0;exitDy=0;entryX=0;entryY=0.5;entryDx=0;entryDy=0;labelBackgroundColor=default;strokeColor=default;fontFamily=Helvetica;fontSize=11;fontColor=default;endArrow=classic;" edge="1" parent="1" source="MKaenRL1xMwM7ThxQxj5-50" target="MKaenRL1xMwM7ThxQxj5-31">
          <mxGeometry relative="1" as="geometry" />
        </mxCell>
        <mxCell id="MKaenRL1xMwM7ThxQxj5-100" style="edgeStyle=none;shape=connector;rounded=0;orthogonalLoop=1;jettySize=auto;html=1;exitX=1;exitY=0.5;exitDx=0;exitDy=0;entryX=0;entryY=0.5;entryDx=0;entryDy=0;labelBackgroundColor=default;strokeColor=default;fontFamily=Helvetica;fontSize=11;fontColor=default;endArrow=classic;" edge="1" parent="1" source="MKaenRL1xMwM7ThxQxj5-50" target="MKaenRL1xMwM7ThxQxj5-32">
          <mxGeometry relative="1" as="geometry" />
        </mxCell>
        <mxCell id="MKaenRL1xMwM7ThxQxj5-101" style="edgeStyle=none;shape=connector;rounded=0;orthogonalLoop=1;jettySize=auto;html=1;exitX=1;exitY=0.5;exitDx=0;exitDy=0;entryX=0;entryY=0.5;entryDx=0;entryDy=0;labelBackgroundColor=default;strokeColor=default;fontFamily=Helvetica;fontSize=11;fontColor=default;endArrow=classic;" edge="1" parent="1" source="MKaenRL1xMwM7ThxQxj5-50" target="MKaenRL1xMwM7ThxQxj5-33">
          <mxGeometry relative="1" as="geometry" />
        </mxCell>
        <mxCell id="MKaenRL1xMwM7ThxQxj5-102" style="edgeStyle=none;shape=connector;rounded=0;orthogonalLoop=1;jettySize=auto;html=1;exitX=1;exitY=0.5;exitDx=0;exitDy=0;entryX=0;entryY=0.5;entryDx=0;entryDy=0;labelBackgroundColor=default;strokeColor=default;fontFamily=Helvetica;fontSize=11;fontColor=default;endArrow=classic;" edge="1" parent="1" source="MKaenRL1xMwM7ThxQxj5-50" target="MKaenRL1xMwM7ThxQxj5-34">
          <mxGeometry relative="1" as="geometry" />
        </mxCell>
        <mxCell id="MKaenRL1xMwM7ThxQxj5-103" style="edgeStyle=none;shape=connector;rounded=0;orthogonalLoop=1;jettySize=auto;html=1;exitX=1;exitY=0.5;exitDx=0;exitDy=0;entryX=0;entryY=0.5;entryDx=0;entryDy=0;labelBackgroundColor=default;strokeColor=default;fontFamily=Helvetica;fontSize=11;fontColor=default;endArrow=classic;" edge="1" parent="1" source="MKaenRL1xMwM7ThxQxj5-50" target="MKaenRL1xMwM7ThxQxj5-35">
          <mxGeometry relative="1" as="geometry" />
        </mxCell>
        <mxCell id="MKaenRL1xMwM7ThxQxj5-50" value="ReLU" style="rounded=1;whiteSpace=wrap;html=1;" vertex="1" parent="1">
          <mxGeometry x="420" y="99" width="50" height="41" as="geometry" />
        </mxCell>
        <mxCell id="MKaenRL1xMwM7ThxQxj5-104" style="edgeStyle=none;shape=connector;rounded=0;orthogonalLoop=1;jettySize=auto;html=1;exitX=1;exitY=0.5;exitDx=0;exitDy=0;entryX=0;entryY=0.5;entryDx=0;entryDy=0;labelBackgroundColor=default;strokeColor=default;fontFamily=Helvetica;fontSize=11;fontColor=default;endArrow=classic;" edge="1" parent="1" source="MKaenRL1xMwM7ThxQxj5-51" target="MKaenRL1xMwM7ThxQxj5-31">
          <mxGeometry relative="1" as="geometry" />
        </mxCell>
        <mxCell id="MKaenRL1xMwM7ThxQxj5-105" style="edgeStyle=none;shape=connector;rounded=0;orthogonalLoop=1;jettySize=auto;html=1;exitX=1;exitY=0.5;exitDx=0;exitDy=0;labelBackgroundColor=default;strokeColor=default;fontFamily=Helvetica;fontSize=11;fontColor=default;endArrow=classic;" edge="1" parent="1" source="MKaenRL1xMwM7ThxQxj5-51">
          <mxGeometry relative="1" as="geometry">
            <mxPoint x="590" y="240.9411764705883" as="targetPoint" />
          </mxGeometry>
        </mxCell>
        <mxCell id="MKaenRL1xMwM7ThxQxj5-106" style="edgeStyle=none;shape=connector;rounded=0;orthogonalLoop=1;jettySize=auto;html=1;exitX=1;exitY=0.5;exitDx=0;exitDy=0;entryX=0;entryY=0.5;entryDx=0;entryDy=0;labelBackgroundColor=default;strokeColor=default;fontFamily=Helvetica;fontSize=11;fontColor=default;endArrow=classic;" edge="1" parent="1" source="MKaenRL1xMwM7ThxQxj5-51" target="MKaenRL1xMwM7ThxQxj5-33">
          <mxGeometry relative="1" as="geometry" />
        </mxCell>
        <mxCell id="MKaenRL1xMwM7ThxQxj5-107" style="edgeStyle=none;shape=connector;rounded=0;orthogonalLoop=1;jettySize=auto;html=1;exitX=1;exitY=0.5;exitDx=0;exitDy=0;entryX=0;entryY=0.5;entryDx=0;entryDy=0;labelBackgroundColor=default;strokeColor=default;fontFamily=Helvetica;fontSize=11;fontColor=default;endArrow=classic;" edge="1" parent="1" source="MKaenRL1xMwM7ThxQxj5-51" target="MKaenRL1xMwM7ThxQxj5-34">
          <mxGeometry relative="1" as="geometry" />
        </mxCell>
        <mxCell id="MKaenRL1xMwM7ThxQxj5-108" style="edgeStyle=none;shape=connector;rounded=0;orthogonalLoop=1;jettySize=auto;html=1;exitX=1;exitY=0.5;exitDx=0;exitDy=0;entryX=0;entryY=0.5;entryDx=0;entryDy=0;labelBackgroundColor=default;strokeColor=default;fontFamily=Helvetica;fontSize=11;fontColor=default;endArrow=classic;" edge="1" parent="1" source="MKaenRL1xMwM7ThxQxj5-51" target="MKaenRL1xMwM7ThxQxj5-35">
          <mxGeometry relative="1" as="geometry" />
        </mxCell>
        <mxCell id="MKaenRL1xMwM7ThxQxj5-51" value="ReLU" style="rounded=1;whiteSpace=wrap;html=1;" vertex="1" parent="1">
          <mxGeometry x="420" y="220" width="50" height="41" as="geometry" />
        </mxCell>
        <mxCell id="MKaenRL1xMwM7ThxQxj5-109" style="edgeStyle=none;shape=connector;rounded=0;orthogonalLoop=1;jettySize=auto;html=1;exitX=1;exitY=0.5;exitDx=0;exitDy=0;entryX=0;entryY=0.5;entryDx=0;entryDy=0;labelBackgroundColor=default;strokeColor=default;fontFamily=Helvetica;fontSize=11;fontColor=default;endArrow=classic;" edge="1" parent="1" source="MKaenRL1xMwM7ThxQxj5-52" target="MKaenRL1xMwM7ThxQxj5-31">
          <mxGeometry relative="1" as="geometry" />
        </mxCell>
        <mxCell id="MKaenRL1xMwM7ThxQxj5-110" style="edgeStyle=none;shape=connector;rounded=0;orthogonalLoop=1;jettySize=auto;html=1;exitX=1;exitY=0.5;exitDx=0;exitDy=0;entryX=0;entryY=0.5;entryDx=0;entryDy=0;labelBackgroundColor=default;strokeColor=default;fontFamily=Helvetica;fontSize=11;fontColor=default;endArrow=classic;" edge="1" parent="1" source="MKaenRL1xMwM7ThxQxj5-52" target="MKaenRL1xMwM7ThxQxj5-32">
          <mxGeometry relative="1" as="geometry" />
        </mxCell>
        <mxCell id="MKaenRL1xMwM7ThxQxj5-111" style="edgeStyle=none;shape=connector;rounded=0;orthogonalLoop=1;jettySize=auto;html=1;exitX=1;exitY=0.5;exitDx=0;exitDy=0;labelBackgroundColor=default;strokeColor=default;fontFamily=Helvetica;fontSize=11;fontColor=default;endArrow=classic;" edge="1" parent="1" source="MKaenRL1xMwM7ThxQxj5-52">
          <mxGeometry relative="1" as="geometry">
            <mxPoint x="590" y="359.7647058823529" as="targetPoint" />
          </mxGeometry>
        </mxCell>
        <mxCell id="MKaenRL1xMwM7ThxQxj5-112" style="edgeStyle=none;shape=connector;rounded=0;orthogonalLoop=1;jettySize=auto;html=1;exitX=1;exitY=0.5;exitDx=0;exitDy=0;entryX=0;entryY=0.5;entryDx=0;entryDy=0;labelBackgroundColor=default;strokeColor=default;fontFamily=Helvetica;fontSize=11;fontColor=default;endArrow=classic;" edge="1" parent="1" source="MKaenRL1xMwM7ThxQxj5-52" target="MKaenRL1xMwM7ThxQxj5-34">
          <mxGeometry relative="1" as="geometry" />
        </mxCell>
        <mxCell id="MKaenRL1xMwM7ThxQxj5-113" style="edgeStyle=none;shape=connector;rounded=0;orthogonalLoop=1;jettySize=auto;html=1;exitX=1;exitY=0.5;exitDx=0;exitDy=0;entryX=0;entryY=0.5;entryDx=0;entryDy=0;labelBackgroundColor=default;strokeColor=default;fontFamily=Helvetica;fontSize=11;fontColor=default;endArrow=classic;" edge="1" parent="1" source="MKaenRL1xMwM7ThxQxj5-52" target="MKaenRL1xMwM7ThxQxj5-35">
          <mxGeometry relative="1" as="geometry" />
        </mxCell>
        <mxCell id="MKaenRL1xMwM7ThxQxj5-52" value="ReLU" style="rounded=1;whiteSpace=wrap;html=1;" vertex="1" parent="1">
          <mxGeometry x="420" y="339" width="50" height="41" as="geometry" />
        </mxCell>
        <mxCell id="MKaenRL1xMwM7ThxQxj5-114" style="edgeStyle=none;shape=connector;rounded=0;orthogonalLoop=1;jettySize=auto;html=1;exitX=1;exitY=0.5;exitDx=0;exitDy=0;entryX=0;entryY=0.5;entryDx=0;entryDy=0;labelBackgroundColor=default;strokeColor=default;fontFamily=Helvetica;fontSize=11;fontColor=default;endArrow=classic;" edge="1" parent="1" source="MKaenRL1xMwM7ThxQxj5-53" target="MKaenRL1xMwM7ThxQxj5-31">
          <mxGeometry relative="1" as="geometry" />
        </mxCell>
        <mxCell id="MKaenRL1xMwM7ThxQxj5-115" style="edgeStyle=none;shape=connector;rounded=0;orthogonalLoop=1;jettySize=auto;html=1;exitX=1;exitY=0.5;exitDx=0;exitDy=0;entryX=0;entryY=0.5;entryDx=0;entryDy=0;labelBackgroundColor=default;strokeColor=default;fontFamily=Helvetica;fontSize=11;fontColor=default;endArrow=classic;" edge="1" parent="1" source="MKaenRL1xMwM7ThxQxj5-53" target="MKaenRL1xMwM7ThxQxj5-32">
          <mxGeometry relative="1" as="geometry" />
        </mxCell>
        <mxCell id="MKaenRL1xMwM7ThxQxj5-116" style="edgeStyle=none;shape=connector;rounded=0;orthogonalLoop=1;jettySize=auto;html=1;exitX=1;exitY=0.5;exitDx=0;exitDy=0;entryX=0;entryY=0.5;entryDx=0;entryDy=0;labelBackgroundColor=default;strokeColor=default;fontFamily=Helvetica;fontSize=11;fontColor=default;endArrow=classic;" edge="1" parent="1" source="MKaenRL1xMwM7ThxQxj5-53" target="MKaenRL1xMwM7ThxQxj5-33">
          <mxGeometry relative="1" as="geometry" />
        </mxCell>
        <mxCell id="MKaenRL1xMwM7ThxQxj5-117" style="edgeStyle=none;shape=connector;rounded=0;orthogonalLoop=1;jettySize=auto;html=1;exitX=1;exitY=0.5;exitDx=0;exitDy=0;labelBackgroundColor=default;strokeColor=default;fontFamily=Helvetica;fontSize=11;fontColor=default;endArrow=classic;" edge="1" parent="1" source="MKaenRL1xMwM7ThxQxj5-53">
          <mxGeometry relative="1" as="geometry">
            <mxPoint x="590" y="480.9411764705883" as="targetPoint" />
          </mxGeometry>
        </mxCell>
        <mxCell id="MKaenRL1xMwM7ThxQxj5-118" style="edgeStyle=none;shape=connector;rounded=0;orthogonalLoop=1;jettySize=auto;html=1;exitX=1;exitY=0.5;exitDx=0;exitDy=0;entryX=0;entryY=0.5;entryDx=0;entryDy=0;labelBackgroundColor=default;strokeColor=default;fontFamily=Helvetica;fontSize=11;fontColor=default;endArrow=classic;" edge="1" parent="1" source="MKaenRL1xMwM7ThxQxj5-53" target="MKaenRL1xMwM7ThxQxj5-35">
          <mxGeometry relative="1" as="geometry" />
        </mxCell>
        <mxCell id="MKaenRL1xMwM7ThxQxj5-53" value="ReLU" style="rounded=1;whiteSpace=wrap;html=1;" vertex="1" parent="1">
          <mxGeometry x="420" y="460" width="50" height="41" as="geometry" />
        </mxCell>
        <mxCell id="MKaenRL1xMwM7ThxQxj5-119" style="edgeStyle=none;shape=connector;rounded=0;orthogonalLoop=1;jettySize=auto;html=1;exitX=1;exitY=0.5;exitDx=0;exitDy=0;labelBackgroundColor=default;strokeColor=default;fontFamily=Helvetica;fontSize=11;fontColor=default;endArrow=classic;" edge="1" parent="1" source="MKaenRL1xMwM7ThxQxj5-54">
          <mxGeometry relative="1" as="geometry">
            <mxPoint x="590" y="119.99999999999989" as="targetPoint" />
          </mxGeometry>
        </mxCell>
        <mxCell id="MKaenRL1xMwM7ThxQxj5-120" style="edgeStyle=none;shape=connector;rounded=0;orthogonalLoop=1;jettySize=auto;html=1;exitX=1;exitY=0.5;exitDx=0;exitDy=0;entryX=0;entryY=0.5;entryDx=0;entryDy=0;labelBackgroundColor=default;strokeColor=default;fontFamily=Helvetica;fontSize=11;fontColor=default;endArrow=classic;" edge="1" parent="1" source="MKaenRL1xMwM7ThxQxj5-54" target="MKaenRL1xMwM7ThxQxj5-32">
          <mxGeometry relative="1" as="geometry" />
        </mxCell>
        <mxCell id="MKaenRL1xMwM7ThxQxj5-121" style="edgeStyle=none;shape=connector;rounded=0;orthogonalLoop=1;jettySize=auto;html=1;exitX=1;exitY=0.5;exitDx=0;exitDy=0;labelBackgroundColor=default;strokeColor=default;fontFamily=Helvetica;fontSize=11;fontColor=default;endArrow=classic;" edge="1" parent="1" source="MKaenRL1xMwM7ThxQxj5-54">
          <mxGeometry relative="1" as="geometry">
            <mxPoint x="590" y="350" as="targetPoint" />
          </mxGeometry>
        </mxCell>
        <mxCell id="MKaenRL1xMwM7ThxQxj5-122" style="edgeStyle=none;shape=connector;rounded=0;orthogonalLoop=1;jettySize=auto;html=1;exitX=1;exitY=0.5;exitDx=0;exitDy=0;labelBackgroundColor=default;strokeColor=default;fontFamily=Helvetica;fontSize=11;fontColor=default;endArrow=classic;" edge="1" parent="1" source="MKaenRL1xMwM7ThxQxj5-54">
          <mxGeometry relative="1" as="geometry">
            <mxPoint x="590" y="470" as="targetPoint" />
          </mxGeometry>
        </mxCell>
        <mxCell id="MKaenRL1xMwM7ThxQxj5-123" style="edgeStyle=none;shape=connector;rounded=0;orthogonalLoop=1;jettySize=auto;html=1;exitX=1;exitY=0.5;exitDx=0;exitDy=0;entryX=0;entryY=0.5;entryDx=0;entryDy=0;labelBackgroundColor=default;strokeColor=default;fontFamily=Helvetica;fontSize=11;fontColor=default;endArrow=classic;" edge="1" parent="1" source="MKaenRL1xMwM7ThxQxj5-54" target="MKaenRL1xMwM7ThxQxj5-35">
          <mxGeometry relative="1" as="geometry" />
        </mxCell>
        <mxCell id="MKaenRL1xMwM7ThxQxj5-54" value="ReLU" style="rounded=1;whiteSpace=wrap;html=1;" vertex="1" parent="1">
          <mxGeometry x="420" y="619.5" width="50" height="41" as="geometry" />
        </mxCell>
        <mxCell id="MKaenRL1xMwM7ThxQxj5-130" style="edgeStyle=none;shape=connector;rounded=0;orthogonalLoop=1;jettySize=auto;html=1;exitX=1;exitY=0.5;exitDx=0;exitDy=0;entryX=0;entryY=0.5;entryDx=0;entryDy=0;labelBackgroundColor=default;strokeColor=default;fontFamily=Helvetica;fontSize=11;fontColor=default;endArrow=classic;" edge="1" parent="1" source="MKaenRL1xMwM7ThxQxj5-56" target="MKaenRL1xMwM7ThxQxj5-43">
          <mxGeometry relative="1" as="geometry" />
        </mxCell>
        <mxCell id="MKaenRL1xMwM7ThxQxj5-131" style="edgeStyle=none;shape=connector;rounded=0;orthogonalLoop=1;jettySize=auto;html=1;exitX=1;exitY=0.5;exitDx=0;exitDy=0;entryX=0;entryY=0.5;entryDx=0;entryDy=0;labelBackgroundColor=default;strokeColor=default;fontFamily=Helvetica;fontSize=11;fontColor=default;endArrow=classic;" edge="1" parent="1" source="MKaenRL1xMwM7ThxQxj5-56" target="MKaenRL1xMwM7ThxQxj5-44">
          <mxGeometry relative="1" as="geometry" />
        </mxCell>
        <mxCell id="MKaenRL1xMwM7ThxQxj5-132" style="edgeStyle=none;shape=connector;rounded=0;orthogonalLoop=1;jettySize=auto;html=1;exitX=1;exitY=0.5;exitDx=0;exitDy=0;entryX=0;entryY=0.5;entryDx=0;entryDy=0;labelBackgroundColor=default;strokeColor=default;fontFamily=Helvetica;fontSize=11;fontColor=default;endArrow=classic;" edge="1" parent="1" source="MKaenRL1xMwM7ThxQxj5-56" target="MKaenRL1xMwM7ThxQxj5-46">
          <mxGeometry relative="1" as="geometry" />
        </mxCell>
        <mxCell id="MKaenRL1xMwM7ThxQxj5-133" style="edgeStyle=none;shape=connector;rounded=0;orthogonalLoop=1;jettySize=auto;html=1;exitX=1;exitY=0.5;exitDx=0;exitDy=0;entryX=0;entryY=0.5;entryDx=0;entryDy=0;labelBackgroundColor=default;strokeColor=default;fontFamily=Helvetica;fontSize=11;fontColor=default;endArrow=classic;" edge="1" parent="1" source="MKaenRL1xMwM7ThxQxj5-56" target="MKaenRL1xMwM7ThxQxj5-48">
          <mxGeometry relative="1" as="geometry" />
        </mxCell>
        <mxCell id="MKaenRL1xMwM7ThxQxj5-134" style="edgeStyle=none;shape=connector;rounded=0;orthogonalLoop=1;jettySize=auto;html=1;exitX=1;exitY=0.5;exitDx=0;exitDy=0;entryX=0;entryY=0.5;entryDx=0;entryDy=0;labelBackgroundColor=default;strokeColor=default;fontFamily=Helvetica;fontSize=11;fontColor=default;endArrow=classic;" edge="1" parent="1" source="MKaenRL1xMwM7ThxQxj5-56" target="MKaenRL1xMwM7ThxQxj5-49">
          <mxGeometry relative="1" as="geometry" />
        </mxCell>
        <mxCell id="MKaenRL1xMwM7ThxQxj5-135" style="edgeStyle=none;shape=connector;rounded=0;orthogonalLoop=1;jettySize=auto;html=1;exitX=1;exitY=0.5;exitDx=0;exitDy=0;entryX=0;entryY=0.5;entryDx=0;entryDy=0;labelBackgroundColor=default;strokeColor=default;fontFamily=Helvetica;fontSize=11;fontColor=default;endArrow=classic;" edge="1" parent="1" source="MKaenRL1xMwM7ThxQxj5-56" target="MKaenRL1xMwM7ThxQxj5-47">
          <mxGeometry relative="1" as="geometry" />
        </mxCell>
        <mxCell id="MKaenRL1xMwM7ThxQxj5-56" value="ReLU" style="rounded=1;whiteSpace=wrap;html=1;" vertex="1" parent="1">
          <mxGeometry x="680" y="99" width="50" height="41" as="geometry" />
        </mxCell>
        <mxCell id="MKaenRL1xMwM7ThxQxj5-137" style="edgeStyle=none;shape=connector;rounded=0;orthogonalLoop=1;jettySize=auto;html=1;exitX=1;exitY=0.5;exitDx=0;exitDy=0;entryX=0;entryY=0.5;entryDx=0;entryDy=0;labelBackgroundColor=default;strokeColor=default;fontFamily=Helvetica;fontSize=11;fontColor=default;endArrow=classic;" edge="1" parent="1" source="MKaenRL1xMwM7ThxQxj5-57" target="MKaenRL1xMwM7ThxQxj5-43">
          <mxGeometry relative="1" as="geometry" />
        </mxCell>
        <mxCell id="MKaenRL1xMwM7ThxQxj5-138" style="edgeStyle=none;shape=connector;rounded=0;orthogonalLoop=1;jettySize=auto;html=1;exitX=1;exitY=0.5;exitDx=0;exitDy=0;entryX=0;entryY=0.5;entryDx=0;entryDy=0;labelBackgroundColor=default;strokeColor=default;fontFamily=Helvetica;fontSize=11;fontColor=default;endArrow=classic;" edge="1" parent="1" source="MKaenRL1xMwM7ThxQxj5-57" target="MKaenRL1xMwM7ThxQxj5-44">
          <mxGeometry relative="1" as="geometry" />
        </mxCell>
        <mxCell id="MKaenRL1xMwM7ThxQxj5-139" style="edgeStyle=none;shape=connector;rounded=0;orthogonalLoop=1;jettySize=auto;html=1;exitX=1;exitY=0.5;exitDx=0;exitDy=0;entryX=0;entryY=0.5;entryDx=0;entryDy=0;labelBackgroundColor=default;strokeColor=default;fontFamily=Helvetica;fontSize=11;fontColor=default;endArrow=classic;" edge="1" parent="1" source="MKaenRL1xMwM7ThxQxj5-57" target="MKaenRL1xMwM7ThxQxj5-46">
          <mxGeometry relative="1" as="geometry" />
        </mxCell>
        <mxCell id="MKaenRL1xMwM7ThxQxj5-140" style="edgeStyle=none;shape=connector;rounded=0;orthogonalLoop=1;jettySize=auto;html=1;exitX=1;exitY=0.5;exitDx=0;exitDy=0;entryX=0;entryY=0.5;entryDx=0;entryDy=0;labelBackgroundColor=default;strokeColor=default;fontFamily=Helvetica;fontSize=11;fontColor=default;endArrow=classic;" edge="1" parent="1" source="MKaenRL1xMwM7ThxQxj5-57" target="MKaenRL1xMwM7ThxQxj5-48">
          <mxGeometry relative="1" as="geometry" />
        </mxCell>
        <mxCell id="MKaenRL1xMwM7ThxQxj5-141" style="edgeStyle=none;shape=connector;rounded=0;orthogonalLoop=1;jettySize=auto;html=1;exitX=1;exitY=0.5;exitDx=0;exitDy=0;entryX=0;entryY=0.5;entryDx=0;entryDy=0;labelBackgroundColor=default;strokeColor=default;fontFamily=Helvetica;fontSize=11;fontColor=default;endArrow=classic;" edge="1" parent="1" source="MKaenRL1xMwM7ThxQxj5-57" target="MKaenRL1xMwM7ThxQxj5-49">
          <mxGeometry relative="1" as="geometry" />
        </mxCell>
        <mxCell id="MKaenRL1xMwM7ThxQxj5-142" style="edgeStyle=none;shape=connector;rounded=0;orthogonalLoop=1;jettySize=auto;html=1;exitX=1;exitY=0.5;exitDx=0;exitDy=0;entryX=0;entryY=0.5;entryDx=0;entryDy=0;labelBackgroundColor=default;strokeColor=default;fontFamily=Helvetica;fontSize=11;fontColor=default;endArrow=classic;" edge="1" parent="1" source="MKaenRL1xMwM7ThxQxj5-57" target="MKaenRL1xMwM7ThxQxj5-47">
          <mxGeometry relative="1" as="geometry" />
        </mxCell>
        <mxCell id="MKaenRL1xMwM7ThxQxj5-57" value="ReLU" style="rounded=1;whiteSpace=wrap;html=1;" vertex="1" parent="1">
          <mxGeometry x="680" y="220" width="50" height="41" as="geometry" />
        </mxCell>
        <mxCell id="MKaenRL1xMwM7ThxQxj5-143" style="edgeStyle=none;shape=connector;rounded=0;orthogonalLoop=1;jettySize=auto;html=1;exitX=1;exitY=0.5;exitDx=0;exitDy=0;labelBackgroundColor=default;strokeColor=default;fontFamily=Helvetica;fontSize=11;fontColor=default;endArrow=classic;" edge="1" parent="1" source="MKaenRL1xMwM7ThxQxj5-58">
          <mxGeometry relative="1" as="geometry">
            <mxPoint x="840" y="79.99999999999989" as="targetPoint" />
          </mxGeometry>
        </mxCell>
        <mxCell id="MKaenRL1xMwM7ThxQxj5-144" style="edgeStyle=none;shape=connector;rounded=0;orthogonalLoop=1;jettySize=auto;html=1;exitX=1;exitY=0.5;exitDx=0;exitDy=0;labelBackgroundColor=default;strokeColor=default;fontFamily=Helvetica;fontSize=11;fontColor=default;endArrow=classic;" edge="1" parent="1" source="MKaenRL1xMwM7ThxQxj5-58">
          <mxGeometry relative="1" as="geometry">
            <mxPoint x="840" y="200" as="targetPoint" />
          </mxGeometry>
        </mxCell>
        <mxCell id="MKaenRL1xMwM7ThxQxj5-145" style="edgeStyle=none;shape=connector;rounded=0;orthogonalLoop=1;jettySize=auto;html=1;exitX=1;exitY=0.5;exitDx=0;exitDy=0;entryX=0;entryY=0.5;entryDx=0;entryDy=0;labelBackgroundColor=default;strokeColor=default;fontFamily=Helvetica;fontSize=11;fontColor=default;endArrow=classic;" edge="1" parent="1" source="MKaenRL1xMwM7ThxQxj5-58" target="MKaenRL1xMwM7ThxQxj5-48">
          <mxGeometry relative="1" as="geometry" />
        </mxCell>
        <mxCell id="MKaenRL1xMwM7ThxQxj5-146" style="edgeStyle=none;shape=connector;rounded=0;orthogonalLoop=1;jettySize=auto;html=1;exitX=1;exitY=0.5;exitDx=0;exitDy=0;entryX=0;entryY=0.5;entryDx=0;entryDy=0;labelBackgroundColor=default;strokeColor=default;fontFamily=Helvetica;fontSize=11;fontColor=default;endArrow=classic;" edge="1" parent="1" source="MKaenRL1xMwM7ThxQxj5-58" target="MKaenRL1xMwM7ThxQxj5-46">
          <mxGeometry relative="1" as="geometry" />
        </mxCell>
        <mxCell id="MKaenRL1xMwM7ThxQxj5-147" style="edgeStyle=none;shape=connector;rounded=0;orthogonalLoop=1;jettySize=auto;html=1;exitX=1;exitY=0.5;exitDx=0;exitDy=0;entryX=0;entryY=0.5;entryDx=0;entryDy=0;labelBackgroundColor=default;strokeColor=default;fontFamily=Helvetica;fontSize=11;fontColor=default;endArrow=classic;" edge="1" parent="1" source="MKaenRL1xMwM7ThxQxj5-58" target="MKaenRL1xMwM7ThxQxj5-49">
          <mxGeometry relative="1" as="geometry" />
        </mxCell>
        <mxCell id="MKaenRL1xMwM7ThxQxj5-148" style="edgeStyle=none;shape=connector;rounded=0;orthogonalLoop=1;jettySize=auto;html=1;exitX=1;exitY=0.5;exitDx=0;exitDy=0;entryX=0;entryY=0.5;entryDx=0;entryDy=0;labelBackgroundColor=default;strokeColor=default;fontFamily=Helvetica;fontSize=11;fontColor=default;endArrow=classic;" edge="1" parent="1" source="MKaenRL1xMwM7ThxQxj5-58" target="MKaenRL1xMwM7ThxQxj5-47">
          <mxGeometry relative="1" as="geometry" />
        </mxCell>
        <mxCell id="MKaenRL1xMwM7ThxQxj5-58" value="ReLU" style="rounded=1;whiteSpace=wrap;html=1;" vertex="1" parent="1">
          <mxGeometry x="680" y="339" width="50" height="41" as="geometry" />
        </mxCell>
        <mxCell id="MKaenRL1xMwM7ThxQxj5-149" style="edgeStyle=none;shape=connector;rounded=0;orthogonalLoop=1;jettySize=auto;html=1;exitX=1;exitY=0.5;exitDx=0;exitDy=0;entryX=0;entryY=0.5;entryDx=0;entryDy=0;labelBackgroundColor=default;strokeColor=default;fontFamily=Helvetica;fontSize=11;fontColor=default;endArrow=classic;" edge="1" parent="1" source="MKaenRL1xMwM7ThxQxj5-59" target="MKaenRL1xMwM7ThxQxj5-43">
          <mxGeometry relative="1" as="geometry" />
        </mxCell>
        <mxCell id="MKaenRL1xMwM7ThxQxj5-150" style="edgeStyle=none;shape=connector;rounded=0;orthogonalLoop=1;jettySize=auto;html=1;exitX=1;exitY=0.5;exitDx=0;exitDy=0;labelBackgroundColor=default;strokeColor=default;fontFamily=Helvetica;fontSize=11;fontColor=default;endArrow=classic;" edge="1" parent="1" source="MKaenRL1xMwM7ThxQxj5-59">
          <mxGeometry relative="1" as="geometry">
            <mxPoint x="840" y="200" as="targetPoint" />
          </mxGeometry>
        </mxCell>
        <mxCell id="MKaenRL1xMwM7ThxQxj5-151" style="edgeStyle=none;shape=connector;rounded=0;orthogonalLoop=1;jettySize=auto;html=1;exitX=1;exitY=0.5;exitDx=0;exitDy=0;entryX=0;entryY=0.5;entryDx=0;entryDy=0;labelBackgroundColor=default;strokeColor=default;fontFamily=Helvetica;fontSize=11;fontColor=default;endArrow=classic;" edge="1" parent="1" source="MKaenRL1xMwM7ThxQxj5-59" target="MKaenRL1xMwM7ThxQxj5-46">
          <mxGeometry relative="1" as="geometry" />
        </mxCell>
        <mxCell id="MKaenRL1xMwM7ThxQxj5-153" style="edgeStyle=none;shape=connector;rounded=0;orthogonalLoop=1;jettySize=auto;html=1;exitX=1;exitY=0.5;exitDx=0;exitDy=0;entryX=0;entryY=0.5;entryDx=0;entryDy=0;labelBackgroundColor=default;strokeColor=default;fontFamily=Helvetica;fontSize=11;fontColor=default;endArrow=classic;" edge="1" parent="1" source="MKaenRL1xMwM7ThxQxj5-59" target="MKaenRL1xMwM7ThxQxj5-48">
          <mxGeometry relative="1" as="geometry" />
        </mxCell>
        <mxCell id="MKaenRL1xMwM7ThxQxj5-154" style="edgeStyle=none;shape=connector;rounded=0;orthogonalLoop=1;jettySize=auto;html=1;exitX=1;exitY=0.5;exitDx=0;exitDy=0;entryX=0;entryY=0.5;entryDx=0;entryDy=0;labelBackgroundColor=default;strokeColor=default;fontFamily=Helvetica;fontSize=11;fontColor=default;endArrow=classic;" edge="1" parent="1" source="MKaenRL1xMwM7ThxQxj5-59" target="MKaenRL1xMwM7ThxQxj5-49">
          <mxGeometry relative="1" as="geometry" />
        </mxCell>
        <mxCell id="MKaenRL1xMwM7ThxQxj5-155" style="edgeStyle=none;shape=connector;rounded=0;orthogonalLoop=1;jettySize=auto;html=1;exitX=1;exitY=0.5;exitDx=0;exitDy=0;entryX=0;entryY=0.5;entryDx=0;entryDy=0;labelBackgroundColor=default;strokeColor=default;fontFamily=Helvetica;fontSize=11;fontColor=default;endArrow=classic;" edge="1" parent="1" source="MKaenRL1xMwM7ThxQxj5-59" target="MKaenRL1xMwM7ThxQxj5-47">
          <mxGeometry relative="1" as="geometry" />
        </mxCell>
        <mxCell id="MKaenRL1xMwM7ThxQxj5-59" value="ReLU" style="rounded=1;whiteSpace=wrap;html=1;" vertex="1" parent="1">
          <mxGeometry x="680" y="460" width="50" height="41" as="geometry" />
        </mxCell>
        <mxCell id="MKaenRL1xMwM7ThxQxj5-156" style="edgeStyle=none;shape=connector;rounded=0;orthogonalLoop=1;jettySize=auto;html=1;exitX=1;exitY=0.5;exitDx=0;exitDy=0;entryX=0;entryY=0.5;entryDx=0;entryDy=0;labelBackgroundColor=default;strokeColor=default;fontFamily=Helvetica;fontSize=11;fontColor=default;endArrow=classic;" edge="1" parent="1" source="MKaenRL1xMwM7ThxQxj5-60" target="MKaenRL1xMwM7ThxQxj5-43">
          <mxGeometry relative="1" as="geometry" />
        </mxCell>
        <mxCell id="MKaenRL1xMwM7ThxQxj5-157" style="edgeStyle=none;shape=connector;rounded=0;orthogonalLoop=1;jettySize=auto;html=1;exitX=1;exitY=0.5;exitDx=0;exitDy=0;entryX=0;entryY=0.5;entryDx=0;entryDy=0;labelBackgroundColor=default;strokeColor=default;fontFamily=Helvetica;fontSize=11;fontColor=default;endArrow=classic;" edge="1" parent="1" source="MKaenRL1xMwM7ThxQxj5-60" target="MKaenRL1xMwM7ThxQxj5-44">
          <mxGeometry relative="1" as="geometry" />
        </mxCell>
        <mxCell id="MKaenRL1xMwM7ThxQxj5-158" style="edgeStyle=none;shape=connector;rounded=0;orthogonalLoop=1;jettySize=auto;html=1;exitX=1;exitY=0.5;exitDx=0;exitDy=0;entryX=0;entryY=0.5;entryDx=0;entryDy=0;labelBackgroundColor=default;strokeColor=default;fontFamily=Helvetica;fontSize=11;fontColor=default;endArrow=classic;" edge="1" parent="1" source="MKaenRL1xMwM7ThxQxj5-60" target="MKaenRL1xMwM7ThxQxj5-46">
          <mxGeometry relative="1" as="geometry" />
        </mxCell>
        <mxCell id="MKaenRL1xMwM7ThxQxj5-159" style="edgeStyle=none;shape=connector;rounded=0;orthogonalLoop=1;jettySize=auto;html=1;exitX=1;exitY=0.5;exitDx=0;exitDy=0;entryX=0;entryY=0.5;entryDx=0;entryDy=0;labelBackgroundColor=default;strokeColor=default;fontFamily=Helvetica;fontSize=11;fontColor=default;endArrow=classic;" edge="1" parent="1" source="MKaenRL1xMwM7ThxQxj5-60" target="MKaenRL1xMwM7ThxQxj5-48">
          <mxGeometry relative="1" as="geometry" />
        </mxCell>
        <mxCell id="MKaenRL1xMwM7ThxQxj5-160" style="edgeStyle=none;shape=connector;rounded=0;orthogonalLoop=1;jettySize=auto;html=1;exitX=1;exitY=0.5;exitDx=0;exitDy=0;entryX=0;entryY=0.5;entryDx=0;entryDy=0;labelBackgroundColor=default;strokeColor=default;fontFamily=Helvetica;fontSize=11;fontColor=default;endArrow=classic;" edge="1" parent="1" source="MKaenRL1xMwM7ThxQxj5-60" target="MKaenRL1xMwM7ThxQxj5-49">
          <mxGeometry relative="1" as="geometry" />
        </mxCell>
        <mxCell id="MKaenRL1xMwM7ThxQxj5-161" style="edgeStyle=none;shape=connector;rounded=0;orthogonalLoop=1;jettySize=auto;html=1;exitX=1;exitY=0.5;exitDx=0;exitDy=0;entryX=0;entryY=0.5;entryDx=0;entryDy=0;labelBackgroundColor=default;strokeColor=default;fontFamily=Helvetica;fontSize=11;fontColor=default;endArrow=classic;" edge="1" parent="1" source="MKaenRL1xMwM7ThxQxj5-60" target="MKaenRL1xMwM7ThxQxj5-47">
          <mxGeometry relative="1" as="geometry" />
        </mxCell>
        <mxCell id="MKaenRL1xMwM7ThxQxj5-60" value="ReLU" style="rounded=1;whiteSpace=wrap;html=1;" vertex="1" parent="1">
          <mxGeometry x="680" y="619.5" width="50" height="41" as="geometry" />
        </mxCell>
        <mxCell id="MKaenRL1xMwM7ThxQxj5-168" value="Output Vector" style="rounded=0;whiteSpace=wrap;html=1;dashed=1;dashPattern=8 8;rotation=-90;" vertex="1" parent="1">
          <mxGeometry x="630" y="384" width="730" height="30" as="geometry" />
        </mxCell>
      </root>
    </mxGraphModel>
  </diagram>
</mxfile>
